<?xml version="1.0" standalone="no"?>
<!DOCTYPE svg PUBLIC "-//W3C//DTD SVG 20010904//EN"
 "http://www.w3.org/TR/2001/REC-SVG-20010904/DTD/svg10.dtd">
<svg version="1.0" xmlns="http://www.w3.org/2000/svg"
 width="612.000000pt" height="612.000000pt" viewBox="0 0 612.000000 612.000000"
 preserveAspectRatio="xMidYMid meet">

<g transform="translate(0.000000,612.000000) scale(0.100000,-0.100000)"
fill="#000000" stroke="none">
<path d="M0 3060 l0 -3060 3060 0 3060 0 0 3060 0 3060 -3060 0 -3060 0 0
-3060z m3818 1424 c414 -85 707 -439 707 -854 0 -93 -5 -130 -23 -190 -32
-102 -86 -202 -144 -265 -26 -29 -48 -55 -48 -57 0 -3 26 -21 59 -41 118 -74
216 -210 257 -358 25 -89 25 -294 0 -409 -73 -345 -275 -565 -611 -663 -68
-20 -97 -21 -840 -24 l-770 -4 3 466 2 465 355 0 355 0 0 -141 0 -140 323 3
c352 3 351 3 408 65 43 46 59 87 59 153 0 92 -42 160 -130 206 -33 18 -82 19
-969 24 l-934 5 -198 344 c-110 189 -199 347 -199 352 0 5 465 9 1073 9 1015
0 1074 1 1112 19 155 70 163 284 14 365 -47 26 -47 26 -303 26 l-256 0 0 -120
0 -120 -357 0 -358 0 0 450 0 450 668 0 c571 0 679 -2 745 -16z"/>
</g>
</svg>
